<svg xmlns="http://www.w3.org/2000/svg" width="561.976" height="111.532" viewBox="0 0 912.002 181">
  <metadata><?xpacket begin="﻿" id="W5M0MpCehiHzreSzNTczkc9d"?>
<x:xmpmeta xmlns:x="adobe:ns:meta/" x:xmptk="Adobe XMP Core 5.6-c138 79.159824, 2016/09/14-01:09:01        ">
   <rdf:RDF xmlns:rdf="http://www.w3.org/1999/02/22-rdf-syntax-ns#">
      <rdf:Description rdf:about=""/>
   </rdf:RDF>
</x:xmpmeta>
                                                                                                    
                                                                                                    
                                                                                                    
                                                                                                    
                                                                                                    
                                                                                                    
                                                                                                    
                                                                                                    
                                                                                                    
                                                                                                    
                                                                                                    
                                                                                                    
                                                                                                    
                                                                                                    
                                                                                                    
                                                                                                    
                                                                                                    
                                                                                                    
                                                                                                    
                                                                                                    
                           
<?xpacket end="w"?></metadata>
<defs>
    <style>
      .cls-1, .cls-2 {
        fill: #fdfdfd;
      }

      .cls-1 {
        fill-rule: evenodd;
      }
    </style>
  </defs>
  <path id="LENDiTT" class="cls-1" d="M477.939,643.69V493.19h-26v175h106.75v-24.5h-80.75Zm216.748-127v-23.5H588.937v175h105.75v-23.5h-80v-30h68.5v-23.5h-68.5v-74.5h80Zm30,150.5h27.75v-91.5l-0.25-21.75,17.25,18.5,101.25,98v-177h-28.75v86.25l0.25,26.75-21-21.75-96.5-95.25V667.19Zm222.749-173.5h-43.5v174.5h43.5c47.25,0,84.247-39.25,84.247-87C1031.68,533.19,994.683,493.69,947.433,493.69Zm0,151h-18V516.94h18c32.5,0,58.747,30,58.747,64.25C1006.18,614.94,979.933,644.69,947.433,644.69ZM1048.99,536V637h25V536h-25Zm24.26-42h-23.51V513.26h23.51V494Zm18.93-.312v25h51V667.94h29.5V518.69h52.5v-25h-133Zm138.75,0v25h51V667.94h29.5V518.69h52.5v-25h-133Z" transform="translate(-451.938 -489.438)"/>
  <rect class="cls-2" x="597.062" y="170.562" width="25" height="8"/>
</svg>
